<svg xmlns="http://www.w3.org/2000/svg" xmlns:xlink="http://www.w3.org/1999/xlink" version="1.1" viewBox="56.74 766.64 364.48 182.67">
<g id="surface1">
<path style="fill-rule:nonzero;fill:rgb(0%,0%,0%);fill-opacity:1;stroke-width:1.37076;stroke-linecap:butt;stroke-linejoin:miter;stroke:rgb(0%,0%,0%);stroke-opacity:1;stroke-miterlimit:4;" d="M 400.32519 407.718871 L 415.098994 407.718871 L 415.098994 424.123165 L 400.32519 424.123165 Z M 400.32519 407.718871 " transform="matrix(1.000504,0,0,0.999881,-30.632414,390.630377)"/>
<path style="fill-rule:nonzero;fill:rgb(0%,0%,0%);fill-opacity:1;stroke-width:2.27711;stroke-linecap:butt;stroke-linejoin:miter;stroke:rgb(0%,0%,0%);stroke-opacity:1;stroke-miterlimit:4;" d="M 432.055292 441.812768 L 445.923303 441.812768 L 445.923303 490.033343 L 432.055292 490.033343 Z M 432.055292 441.812768 " transform="matrix(1.000504,0,0,0.999881,-30.632414,390.630377)"/>
<path style="fill-rule:nonzero;fill:rgb(0%,0%,0%);fill-opacity:1;stroke-width:1.37076;stroke-linecap:butt;stroke-linejoin:miter;stroke:rgb(0%,0%,0%);stroke-opacity:1;stroke-miterlimit:4;" d="M 416.239045 491.150664 L 431.012849 491.150664 L 431.012849 507.551051 L 416.239045 507.551051 Z M 416.239045 491.150664 " transform="matrix(1.000504,0,0,0.999881,-30.632414,390.630377)"/>
<path style="fill-rule:nonzero;fill:rgb(0%,0%,0%);fill-opacity:1;stroke-width:1.37076;stroke-linecap:butt;stroke-linejoin:miter;stroke:rgb(0%,0%,0%);stroke-opacity:1;stroke-miterlimit:4;" d="M 400.508691 508.55117 L 415.282496 508.55117 L 415.282496 524.951557 L 400.508691 524.951557 Z M 400.508691 508.55117 " transform="matrix(1.000504,0,0,0.999881,-30.632414,390.630377)"/>
<path style="fill-rule:nonzero;fill:rgb(0%,0%,0%);fill-opacity:1;stroke-width:6.51995;stroke-linecap:butt;stroke-linejoin:miter;stroke:rgb(0%,0%,0%);stroke-opacity:1;stroke-miterlimit:4;" d="M 141.545453 528.612148 L 396.768389 528.612148 L 396.768389 542.430197 L 141.545453 542.430197 Z M 141.545453 528.612148 " transform="matrix(1.000504,0,0,0.999881,-30.632414,390.630377)"/>
<path style="fill-rule:nonzero;fill:rgb(0%,0%,0%);fill-opacity:1;stroke-width:6.51995;stroke-linecap:butt;stroke-linejoin:miter;stroke:rgb(0%,0%,0%);stroke-opacity:1;stroke-miterlimit:4;" d="M 140.745076 392.35767 L 395.968011 392.35767 L 395.968011 406.175719 L 140.745076 406.175719 Z M 140.745076 392.35767 " transform="matrix(1.000504,0,0,0.999881,-30.632414,390.630377)"/>
<path style=" stroke:none;fill-rule:nonzero;fill:rgb(49.411765%,5.882353%,24.705882%);fill-opacity:1;" d="M 107.128906 797.859375 L 369.433594 797.859375 L 369.433594 917.125 L 107.128906 917.125 Z M 107.128906 797.859375 "/>
<path style="fill-rule:nonzero;fill:rgb(0%,0%,0%);fill-opacity:1;stroke-width:1.37076;stroke-linecap:butt;stroke-linejoin:miter;stroke:rgb(0%,0%,0%);stroke-opacity:1;stroke-miterlimit:4;" d="M 415.571412 424.423982 L 430.345217 424.423982 L 430.345217 440.824369 L 415.571412 440.824369 Z M 415.571412 424.423982 " transform="matrix(1.000504,0,0,0.999881,-30.632414,390.630377)"/>
<path style="fill-rule:nonzero;fill:rgb(0%,0%,0%);fill-opacity:1;stroke-width:1.37076;stroke-linecap:butt;stroke-linejoin:miter;stroke:rgb(0%,0%,0%);stroke-opacity:1;stroke-miterlimit:4;" d="M -137.149278 -525.952172 L -122.3754 -525.949242 L -122.376035 -509.548764 L -137.149927 -509.547788 Z M -137.149278 -525.952172 " transform="matrix(-1.000498,0.00337115,-0.00337325,-0.999875,-30.632414,390.630377)"/>
<path style="fill-rule:nonzero;fill:rgb(0%,0%,0%);fill-opacity:1;stroke-width:2.27711;stroke-linecap:butt;stroke-linejoin:miter;stroke:rgb(0%,0%,0%);stroke-opacity:1;stroke-miterlimit:4;" d="M -105.420726 -491.856589 L -91.552636 -491.856712 L -91.551236 -443.635858 L -105.419326 -443.635734 Z M -105.420726 -491.856589 " transform="matrix(-1.000498,0.00337115,-0.00337325,-0.999875,-30.632414,390.630377)"/>
<path style="fill-rule:nonzero;fill:rgb(0%,0%,0%);fill-opacity:1;stroke-width:1.37076;stroke-linecap:butt;stroke-linejoin:miter;stroke:rgb(0%,0%,0%);stroke-opacity:1;stroke-miterlimit:4;" d="M -121.235518 -442.520945 L -106.461626 -442.521922 L -106.462261 -426.121443 L -121.236153 -426.120467 Z M -121.235518 -442.520945 " transform="matrix(-1.000498,0.00337115,-0.00337325,-0.999875,-30.632414,390.630377)"/>
<path style="fill-rule:nonzero;fill:rgb(0%,0%,0%);fill-opacity:1;stroke-width:1.37076;stroke-linecap:butt;stroke-linejoin:miter;stroke:rgb(0%,0%,0%);stroke-opacity:1;stroke-miterlimit:4;" d="M -136.966056 -425.12259 L -122.192178 -425.119659 L -122.188908 -408.719168 L -136.966704 -408.718205 Z M -136.966056 -425.12259 " transform="matrix(-1.000498,0.00337115,-0.00337325,-0.999875,-30.632414,390.630377)"/>
<path style="fill-rule:nonzero;fill:rgb(0%,0%,0%);fill-opacity:1;stroke-width:1.37076;stroke-linecap:butt;stroke-linejoin:miter;stroke:rgb(0%,0%,0%);stroke-opacity:1;stroke-miterlimit:4;" d="M -121.904634 -509.246356 L -107.130742 -509.247332 L -107.131391 -492.842947 L -121.905269 -492.845878 Z M -121.904634 -509.246356 " transform="matrix(-1.000498,0.00337115,-0.00337325,-0.999875,-30.632414,390.630377)"/>
<path style=" stroke:none;fill-rule:nonzero;fill:rgb(49.411765%,5.882353%,24.705882%);fill-opacity:1;" d="M 112.457031 883.027344 L 77.820312 883.078125 L 77.414062 832.316406 L 112.050781 832.269531 Z M 112.457031 883.027344 "/>
<path style=" stroke:none;fill-rule:nonzero;fill:rgb(49.411765%,5.882353%,24.705882%);fill-opacity:1;" d="M 107.785156 832.640625 L 93.003906 832.691406 L 92.945312 815.308594 L 107.726562 815.253906 Z M 107.785156 832.640625 "/>
<path style=" stroke:none;fill-rule:nonzero;fill:rgb(49.411765%,5.882353%,24.705882%);fill-opacity:1;" d="M 108.464844 900.433594 L 93.683594 900.488281 L 93.628906 882.496094 L 108.410156 882.441406 Z M 108.464844 900.433594 "/>
<path style=" stroke:none;fill-rule:nonzero;fill:rgb(49.411765%,5.882353%,24.705882%);fill-opacity:1;" d="M 366.578125 831.320312 L 400.992188 831.375 L 401.242188 882.136719 L 366.828125 882.082031 Z M 366.578125 831.320312 "/>
<path style=" stroke:none;fill-rule:nonzero;fill:rgb(49.411765%,5.882353%,24.705882%);fill-opacity:1;" d="M 365.472656 881.722656 L 385.878906 881.714844 L 385.886719 899.527344 L 365.480469 899.535156 Z M 365.472656 881.722656 "/>
<path style=" stroke:none;fill-rule:nonzero;fill:rgb(49.411765%,5.882353%,24.705882%);fill-opacity:1;" d="M 366.910156 815.519531 L 385.398438 815.511719 L 385.40625 831.914062 L 366.917969 831.917969 Z M 366.910156 815.519531 "/>
</g>
</svg>